<svg width="123" height="38" viewBox="0 0 123 38" fill="none" xmlns="http://www.w3.org/2000/svg">
<path d="M39.158 25V6.8H43.37V21.568H52.496V25H39.158ZM63.2704 25V22.27L63.0104 21.672V16.784C63.0104 15.9173 62.7417 15.2413 62.2044 14.756C61.6844 14.2707 60.8784 14.028 59.7864 14.028C59.041 14.028 58.3044 14.1493 57.5764 14.392C56.8657 14.6173 56.259 14.9293 55.7564 15.328L54.3004 12.494C55.063 11.9567 55.9817 11.5407 57.0564 11.246C58.131 10.9513 59.223 10.804 60.3324 10.804C62.4644 10.804 64.1197 11.3067 65.2984 12.312C66.477 13.3173 67.0664 14.886 67.0664 17.018V25H63.2704ZM59.0064 25.208C57.9144 25.208 56.9784 25.026 56.1984 24.662C55.4184 24.2807 54.8204 23.7693 54.4044 23.128C53.9884 22.4867 53.7804 21.7673 53.7804 20.97C53.7804 20.138 53.9797 19.41 54.3784 18.786C54.7944 18.162 55.4444 17.6767 56.3284 17.33C57.2124 16.966 58.365 16.784 59.7864 16.784H63.5044V19.15H60.2284C59.275 19.15 58.6164 19.306 58.2524 19.618C57.9057 19.93 57.7324 20.32 57.7324 20.788C57.7324 21.308 57.9317 21.724 58.3304 22.036C58.7464 22.3307 59.3097 22.478 60.0204 22.478C60.6964 22.478 61.303 22.322 61.8404 22.01C62.3777 21.6807 62.7677 21.204 63.0104 20.58L63.6344 22.452C63.3397 23.3533 62.8024 24.038 62.0224 24.506C61.2424 24.974 60.237 25.208 59.0064 25.208ZM79.0052 25.208C77.8266 25.208 76.7952 24.948 75.9112 24.428C75.0272 23.908 74.3339 23.1193 73.8312 22.062C73.3459 20.9873 73.1032 19.6353 73.1032 18.006C73.1032 16.3593 73.3372 15.0073 73.8052 13.95C74.2732 12.8927 74.9492 12.104 75.8332 11.584C76.7172 11.064 77.7746 10.804 79.0052 10.804C80.3226 10.804 81.5012 11.1073 82.5412 11.714C83.5986 12.3033 84.4306 13.1353 85.0372 14.21C85.6612 15.2847 85.9732 16.55 85.9732 18.006C85.9732 19.4793 85.6612 20.7533 85.0372 21.828C84.4306 22.9027 83.5986 23.7347 82.5412 24.324C81.5012 24.9133 80.3226 25.208 79.0052 25.208ZM70.7372 30.044V11.012H74.6112V13.872L74.5332 18.032L74.7932 22.166V30.044H70.7372ZM78.3032 21.88C78.9792 21.88 79.5772 21.724 80.0972 21.412C80.6346 21.1 81.0592 20.658 81.3712 20.086C81.7006 19.4967 81.8652 18.8033 81.8652 18.006C81.8652 17.1913 81.7006 16.498 81.3712 15.926C81.0592 15.354 80.6346 14.912 80.0972 14.6C79.5772 14.288 78.9792 14.132 78.3032 14.132C77.6272 14.132 77.0206 14.288 76.4832 14.6C75.9459 14.912 75.5212 15.354 75.2092 15.926C74.8972 16.498 74.7412 17.1913 74.7412 18.006C74.7412 18.8033 74.8972 19.4967 75.2092 20.086C75.5212 20.658 75.9459 21.1 76.4832 21.412C77.0206 21.724 77.6272 21.88 78.3032 21.88ZM95.3444 25.208C93.8537 25.208 92.5277 24.896 91.3664 24.272C90.2224 23.648 89.3124 22.7987 88.6364 21.724C87.9777 20.632 87.6484 19.3927 87.6484 18.006C87.6484 16.602 87.9777 15.3627 88.6364 14.288C89.3124 13.196 90.2224 12.3467 91.3664 11.74C92.5277 11.116 93.8537 10.804 95.3444 10.804C96.8177 10.804 98.1351 11.116 99.2964 11.74C100.458 12.3467 101.368 13.1873 102.026 14.262C102.685 15.3367 103.014 16.5847 103.014 18.006C103.014 19.3927 102.685 20.632 102.026 21.724C101.368 22.7987 100.458 23.648 99.2964 24.272C98.1351 24.896 96.8177 25.208 95.3444 25.208ZM95.3444 21.88C96.0204 21.88 96.6271 21.724 97.1644 21.412C97.7017 21.1 98.1264 20.658 98.4384 20.086C98.7504 19.4967 98.9064 18.8033 98.9064 18.006C98.9064 17.1913 98.7504 16.498 98.4384 15.926C98.1264 15.354 97.7017 14.912 97.1644 14.6C96.6271 14.288 96.0204 14.132 95.3444 14.132C94.6684 14.132 94.0617 14.288 93.5244 14.6C92.9871 14.912 92.5537 15.354 92.2244 15.926C91.9124 16.498 91.7564 17.1913 91.7564 18.006C91.7564 18.8033 91.9124 19.4967 92.2244 20.086C92.5537 20.658 92.9871 21.1 93.5244 21.412C94.0617 21.724 94.6684 21.88 95.3444 21.88ZM105.726 25V11.012H109.6V14.964L109.054 13.82C109.47 12.832 110.137 12.0867 111.056 11.584C111.974 11.064 113.092 10.804 114.41 10.804V14.548C114.236 14.5307 114.08 14.522 113.942 14.522C113.803 14.5047 113.656 14.496 113.5 14.496C112.39 14.496 111.489 14.8167 110.796 15.458C110.12 16.082 109.782 17.0613 109.782 18.396V25H105.726ZM117.209 18.682L116.403 6.8H121.239L120.433 18.682H117.209ZM118.821 25.208C118.093 25.208 117.495 24.974 117.027 24.506C116.559 24.038 116.325 23.4833 116.325 22.842C116.325 22.1833 116.559 21.6373 117.027 21.204C117.495 20.7533 118.093 20.528 118.821 20.528C119.566 20.528 120.164 20.7533 120.615 21.204C121.083 21.6373 121.317 22.1833 121.317 22.842C121.317 23.4833 121.083 24.038 120.615 24.506C120.164 24.974 119.566 25.208 118.821 25.208Z" fill="#2E005D"/>
<path d="M79.3977 29.8317V28.7273H85.2003V29.8317H82.9524V36H81.6456V29.8317H79.3977ZM87.0895 36.1101C86.7438 36.1101 86.4325 36.0485 86.1555 35.9254C85.8809 35.8 85.6631 35.6153 85.5021 35.3714C85.3435 35.1276 85.2642 34.8269 85.2642 34.4695C85.2642 34.1617 85.321 33.9072 85.4347 33.706C85.5483 33.5047 85.7034 33.3438 85.8999 33.223C86.0964 33.1023 86.3177 33.0111 86.5639 32.9496C86.8125 32.8857 87.0694 32.8395 87.3345 32.8111C87.6541 32.7779 87.9134 32.7483 88.1122 32.7223C88.3111 32.6939 88.4555 32.6513 88.5455 32.5945C88.6378 32.5353 88.6839 32.4441 88.6839 32.321V32.2997C88.6839 32.0322 88.6046 31.825 88.446 31.6783C88.2874 31.5315 88.0589 31.4581 87.7607 31.4581C87.4458 31.4581 87.196 31.5268 87.0114 31.6641C86.8291 31.8014 86.706 31.9635 86.642 32.1506L85.4418 31.9801C85.5365 31.6487 85.6927 31.3717 85.9105 31.1491C86.1283 30.9242 86.3946 30.7562 86.7095 30.6449C87.0244 30.5312 87.3724 30.4744 87.7536 30.4744C88.0163 30.4744 88.2779 30.5052 88.5384 30.5668C88.7988 30.6283 89.0367 30.7301 89.2521 30.8722C89.4676 31.0118 89.6404 31.2024 89.7706 31.4439C89.9032 31.6854 89.9695 31.9872 89.9695 32.3494V36H88.7337V35.2507H88.6911C88.6129 35.4022 88.5028 35.5443 88.3608 35.6768C88.2211 35.8071 88.0447 35.9124 87.8317 35.9929C87.621 36.071 87.3736 36.1101 87.0895 36.1101ZM87.4233 35.1655C87.6813 35.1655 87.9051 35.1146 88.0945 35.0128C88.2839 34.9086 88.4295 34.7713 88.5312 34.6009C88.6354 34.4304 88.6875 34.2446 88.6875 34.0433V33.4006C88.6473 33.4337 88.5786 33.4645 88.4815 33.4929C88.3868 33.5213 88.2803 33.5462 88.1619 33.5675C88.0436 33.5888 87.9264 33.6077 87.8104 33.6243C87.6944 33.6409 87.5938 33.6551 87.5085 33.6669C87.3168 33.6929 87.1451 33.7356 86.9936 33.7947C86.8421 33.8539 86.7225 33.9368 86.6349 34.0433C86.5473 34.1475 86.5036 34.2824 86.5036 34.4482C86.5036 34.6849 86.59 34.8636 86.7628 34.9844C86.9356 35.1051 87.1558 35.1655 87.4233 35.1655ZM91.3189 36V28.7273H92.6044V31.4474H92.6577C92.724 31.3149 92.8175 31.174 92.9382 31.0249C93.0589 30.8733 93.2223 30.7443 93.4283 30.6378C93.6342 30.5289 93.897 30.4744 94.2166 30.4744C94.638 30.4744 95.018 30.5821 95.3565 30.7976C95.6974 31.0107 95.9673 31.3267 96.1662 31.7457C96.3674 32.1624 96.468 32.6738 96.468 33.2798C96.468 33.8788 96.3698 34.3878 96.1733 34.8068C95.9768 35.2259 95.7093 35.5455 95.3707 35.7656C95.0322 35.9858 94.6487 36.0959 94.2202 36.0959C93.9077 36.0959 93.6484 36.0438 93.4425 35.9396C93.2365 35.8355 93.0708 35.71 92.9453 35.5632C92.8222 35.4141 92.7263 35.2732 92.6577 35.1406H92.5831V36H91.3189ZM92.5795 33.2727C92.5795 33.6255 92.6293 33.9344 92.7287 34.1996C92.8305 34.4647 92.9761 34.6719 93.1655 34.821C93.3572 34.9678 93.5893 35.0412 93.8615 35.0412C94.1456 35.0412 94.3835 34.9654 94.5753 34.8139C94.767 34.66 94.9115 34.4505 95.0085 34.1854C95.108 33.9179 95.1577 33.6136 95.1577 33.2727C95.1577 32.9342 95.1091 32.6335 95.0121 32.3707C94.915 32.108 94.7706 31.902 94.5788 31.7528C94.3871 31.6037 94.148 31.5291 93.8615 31.5291C93.5869 31.5291 93.3537 31.6013 93.1619 31.7457C92.9702 31.8902 92.8246 32.0926 92.7251 32.353C92.6281 32.6134 92.5795 32.92 92.5795 33.2727ZM99.1305 36.1101C98.7849 36.1101 98.4735 36.0485 98.1966 35.9254C97.9219 35.8 97.7041 35.6153 97.5431 35.3714C97.3845 35.1276 97.3052 34.8269 97.3052 34.4695C97.3052 34.1617 97.362 33.9072 97.4757 33.706C97.5893 33.5047 97.7444 33.3438 97.9409 33.223C98.1374 33.1023 98.3587 33.0111 98.6049 32.9496C98.8535 32.8857 99.1104 32.8395 99.3755 32.8111C99.6951 32.7779 99.9544 32.7483 100.153 32.7223C100.352 32.6939 100.497 32.6513 100.586 32.5945C100.679 32.5353 100.725 32.4441 100.725 32.321V32.2997C100.725 32.0322 100.646 31.825 100.487 31.6783C100.328 31.5315 100.1 31.4581 99.8017 31.4581C99.4868 31.4581 99.237 31.5268 99.0524 31.6641C98.8701 31.8014 98.747 31.9635 98.6831 32.1506L97.4828 31.9801C97.5775 31.6487 97.7337 31.3717 97.9515 31.1491C98.1693 30.9242 98.4357 30.7562 98.7505 30.6449C99.0654 30.5312 99.4134 30.4744 99.7946 30.4744C100.057 30.4744 100.319 30.5052 100.579 30.5668C100.84 30.6283 101.078 30.7301 101.293 30.8722C101.509 31.0118 101.681 31.2024 101.812 31.4439C101.944 31.6854 102.01 31.9872 102.01 32.3494V36H100.775V35.2507H100.732C100.654 35.4022 100.544 35.5443 100.402 35.6768C100.262 35.8071 100.086 35.9124 99.8727 35.9929C99.662 36.071 99.4146 36.1101 99.1305 36.1101ZM99.4643 35.1655C99.7224 35.1655 99.9461 35.1146 100.135 35.0128C100.325 34.9086 100.47 34.7713 100.572 34.6009C100.676 34.4304 100.729 34.2446 100.729 34.0433V33.4006C100.688 33.4337 100.62 33.4645 100.523 33.4929C100.428 33.5213 100.321 33.5462 100.203 33.5675C100.085 33.5888 99.9674 33.6077 99.8514 33.6243C99.7354 33.6409 99.6348 33.6551 99.5495 33.6669C99.3578 33.6929 99.1861 33.7356 99.0346 33.7947C98.8831 33.8539 98.7636 33.9368 98.676 34.0433C98.5884 34.1475 98.5446 34.2824 98.5446 34.4482C98.5446 34.6849 98.631 34.8636 98.8038 34.9844C98.9766 35.1051 99.1968 35.1655 99.4643 35.1655ZM104.589 32.804V36H103.303V30.5455H104.532V31.4723H104.596C104.721 31.1669 104.921 30.9242 105.196 30.7443C105.473 30.5644 105.815 30.4744 106.222 30.4744C106.599 30.4744 106.926 30.5549 107.206 30.7159C107.488 30.8769 107.705 31.1101 107.859 31.4155C108.015 31.7209 108.092 32.0914 108.09 32.527V36H106.805V32.7259C106.805 32.3613 106.71 32.076 106.52 31.87C106.333 31.6641 106.074 31.5611 105.743 31.5611C105.518 31.5611 105.318 31.6108 105.143 31.7102C104.97 31.8073 104.834 31.9482 104.734 32.1328C104.637 32.3175 104.589 32.5412 104.589 32.804ZM110.966 36.1101C110.621 36.1101 110.309 36.0485 110.032 35.9254C109.758 35.8 109.54 35.6153 109.379 35.3714C109.22 35.1276 109.141 34.8269 109.141 34.4695C109.141 34.1617 109.198 33.9072 109.312 33.706C109.425 33.5047 109.58 33.3438 109.777 33.223C109.973 33.1023 110.195 33.0111 110.441 32.9496C110.689 32.8857 110.946 32.8395 111.211 32.8111C111.531 32.7779 111.79 32.7483 111.989 32.7223C112.188 32.6939 112.332 32.6513 112.422 32.5945C112.515 32.5353 112.561 32.4441 112.561 32.321V32.2997C112.561 32.0322 112.482 31.825 112.323 31.6783C112.164 31.5315 111.936 31.4581 111.638 31.4581C111.323 31.4581 111.073 31.5268 110.888 31.6641C110.706 31.8014 110.583 31.9635 110.519 32.1506L109.319 31.9801C109.413 31.6487 109.57 31.3717 109.787 31.1491C110.005 30.9242 110.272 30.7562 110.586 30.6449C110.901 30.5312 111.249 30.4744 111.631 30.4744C111.893 30.4744 112.155 30.5052 112.415 30.5668C112.676 30.6283 112.914 30.7301 113.129 30.8722C113.345 31.0118 113.517 31.2024 113.648 31.4439C113.78 31.6854 113.846 31.9872 113.846 32.3494V36H112.611V35.2507H112.568C112.49 35.4022 112.38 35.5443 112.238 35.6768C112.098 35.8071 111.922 35.9124 111.709 35.9929C111.498 36.071 111.251 36.1101 110.966 36.1101ZM111.3 35.1655C111.558 35.1655 111.782 35.1146 111.971 35.0128C112.161 34.9086 112.306 34.7713 112.408 34.6009C112.512 34.4304 112.564 34.2446 112.564 34.0433V33.4006C112.524 33.4337 112.456 33.4645 112.358 33.4929C112.264 33.5213 112.157 33.5462 112.039 33.5675C111.921 33.5888 111.803 33.6077 111.687 33.6243C111.571 33.6409 111.471 33.6551 111.385 33.6669C111.194 33.6929 111.022 33.7356 110.871 33.7947C110.719 33.8539 110.599 33.9368 110.512 34.0433C110.424 34.1475 110.381 34.2824 110.381 34.4482C110.381 34.6849 110.467 34.8636 110.64 34.9844C110.813 35.1051 111.033 35.1655 111.3 35.1655ZM116.425 32.804V36H115.139V30.5455H116.368V31.4723H116.432C116.557 31.1669 116.757 30.9242 117.032 30.7443C117.309 30.5644 117.651 30.4744 118.058 30.4744C118.434 30.4744 118.762 30.5549 119.042 30.7159C119.323 30.8769 119.541 31.1101 119.695 31.4155C119.851 31.7209 119.928 32.0914 119.926 32.527V36H118.64V32.7259C118.64 32.3613 118.546 32.076 118.356 31.87C118.169 31.6641 117.91 31.5611 117.579 31.5611C117.354 31.5611 117.154 31.6108 116.979 31.7102C116.806 31.8073 116.67 31.9482 116.57 32.1328C116.473 32.3175 116.425 32.5412 116.425 32.804Z" fill="#2E005D"/>
<path d="M9.88889 13.8235H24.1111M9.88889 20.8824H20.5556M27.6667 5C29.0812 5 30.4377 5.55777 31.4379 6.55061C32.4381 7.54345 33 8.89003 33 10.2941V24.4118C33 25.8159 32.4381 27.1624 31.4379 28.1553C30.4377 29.1481 29.0812 29.7059 27.6667 29.7059H18.7778L9.88889 35V29.7059H6.33333C4.91885 29.7059 3.56229 29.1481 2.5621 28.1553C1.5619 27.1624 1 25.8159 1 24.4118V10.2941C1 8.89003 1.5619 7.54345 2.5621 6.55061C3.56229 5.55777 4.91885 5 6.33333 5H27.6667Z" stroke="#2E005D" stroke-width="2" stroke-linecap="round" stroke-linejoin="round"/>
</svg>
